# xmcd
#
# Track frame offsets:
#       150
#       15427
#       34822
#       53322
#       66657
#       80372
#       96950
#       110115
#       150355
#       174447
#       188332
#       203405
#       224035
#       242032
#       255972
#
# Disc length: 3683 seconds
#
# Revision: 0
# Processed by: cddbd v1.4PL0 Copyright (c) Steve Scherf et al.
# Submitted via: CD-DA_X-Tractor v0.21
#
DISCID=ba0e610f
DTITLE=Candieiro - AO VIVO
DYEAR=1900
DGENRE=
TTITLE0=Todo mundo veio pro rodeiro
TTITLE1=Vaneira pras meninas carinhosas
TTITLE2=Mulher chorona
TTITLE3=Cá no fim do mundo
TTITLE4=Não sei dançar
TTITLE5=Tá pegando fogo
TTITLE6=Forrónerão
TTITLE7=Vem chegando o gaiteiro
TTITLE8=Nosso xote
TTITLE9=Iguaria Campeira
TTITLE10=Deusa menina
TTITLE11=Sentimentos
TTITLE12=Alambrador
TTITLE13=Cheguemo no Baile
TTITLE14=É disso que o velho gosta
EXTD=
EXTT0=
EXTT1=
EXTT2=
EXTT3=
EXTT4=
EXTT5=
EXTT6=
EXTT7=
EXTT8=
EXTT9=
EXTT10=
EXTT11=
EXTT12=
EXTT13=
EXTT14=
PLAYORDER=
